<?xml version="1.0" encoding="iso-8859-1"?>
<!-- Generator: Adobe Illustrator 17.1.0, SVG Export Plug-In . SVG Version: 6.00 Build 0)  -->
<!DOCTYPE svg PUBLIC "-//W3C//DTD SVG 1.1//EN" "http://www.w3.org/Graphics/SVG/1.1/DTD/svg11.dtd">
<svg version="1.1" xmlns="http://www.w3.org/2000/svg" xmlns:xlink="http://www.w3.org/1999/xlink" x="0px" y="0px"
	 viewBox="0 0 165.908 175.75" style="enable-background:new 0 0 165.908 175.75;" xml:space="preserve">
<g id="angular">
	<g>
		<polygon style="fill:#B3B3B3;" points="82.689,0 0,29.1 13.067,137.436 82.777,175.75 152.846,136.917 165.908,28.585 		"/>
		<polygon style="fill:#A6120D;" points="157.66,34.846 82.496,9.214 82.496,166.596 145.487,131.734 		"/>
		<polygon style="fill:#DD1B16;" points="9.279,35.308 20.476,132.197 82.495,166.596 82.495,9.211 		"/>
		<path style="fill:#F2F2F2;" d="M103.186,92.996l-20.69,9.675H60.689l-10.251,25.64l-19.067,0.353L82.496,14.929L103.186,92.996z
			 M101.186,88.125L82.633,51.396L67.415,87.493h15.08L101.186,88.125z"/>
		<polygon style="fill:#B3B3B3;" points="82.495,14.929 82.632,51.396 99.9,87.521 82.534,87.521 82.495,102.648 106.508,102.671 
			117.731,128.668 135.975,129.006 		"/>
	</g>
</g>
<g id="Layer_1">
</g>
</svg>
