<?xml version="1.0" encoding="iso-8859-1"?>
<!-- Generator: Adobe Illustrator 17.1.0, SVG Export Plug-In . SVG Version: 6.00 Build 0)  -->
<!DOCTYPE svg PUBLIC "-//W3C//DTD SVG 1.1//EN" "http://www.w3.org/Graphics/SVG/1.1/DTD/svg11.dtd">
<svg version="1.1" xmlns="http://www.w3.org/2000/svg" xmlns:xlink="http://www.w3.org/1999/xlink" x="0px" y="0px"
	 viewBox="0 0 178.187 171.66" style="enable-background:new 0 0 178.187 171.66;" xml:space="preserve">
<g id="jquery">
	<g>
		<path style="fill:#0868AC;" d="M11.316,40.317C-4.46,62.992-2.496,92.492,9.555,116.585c0.287,0.578,0.587,1.146,0.883,1.714
			c0.19,0.36,0.367,0.73,0.564,1.086c0.111,0.212,0.236,0.42,0.351,0.624c0.206,0.384,0.416,0.749,0.628,1.123
			c0.374,0.661,0.758,1.317,1.151,1.973c0.217,0.36,0.432,0.721,0.656,1.081c0.434,0.702,0.88,1.396,1.335,2.089
			c0.19,0.296,0.374,0.591,0.568,0.878c0.628,0.938,1.271,1.871,1.934,2.791c0.016,0.024,0.035,0.051,0.055,0.074
			c0.104,0.148,0.22,0.291,0.326,0.439c0.573,0.79,1.164,1.571,1.763,2.343c0.22,0.282,0.441,0.564,0.663,0.846
			c0.534,0.67,1.077,1.335,1.629,2.001c0.206,0.25,0.414,0.499,0.622,0.744c0.742,0.873,1.497,1.742,2.269,2.592
			c0.014,0.013,0.032,0.032,0.046,0.046c0.032,0.037,0.06,0.06,0.088,0.097c0.753,0.823,1.525,1.627,2.306,2.431
			c0.243,0.25,0.49,0.499,0.739,0.744c0.605,0.61,1.22,1.211,1.841,1.807c0.252,0.24,0.501,0.485,0.753,0.716
			c0.829,0.781,1.668,1.548,2.523,2.297c0.014,0.013,0.025,0.024,0.039,0.032c0.146,0.129,0.296,0.25,0.439,0.374
			c0.753,0.652,1.52,1.299,2.292,1.936c0.314,0.254,0.633,0.504,0.95,0.758c0.631,0.504,1.268,1.003,1.911,1.493
			c0.34,0.259,0.679,0.518,1.021,0.776c0.709,0.522,1.423,1.035,2.144,1.539c0.263,0.189,0.518,0.374,0.781,0.555
			c0.074,0.051,0.141,0.102,0.215,0.153c0.684,0.471,1.384,0.924,2.082,1.377c0.3,0.199,0.598,0.407,0.901,0.601
			c1.072,0.679,2.16,1.349,3.26,1.996c0.298,0.171,0.601,0.337,0.901,0.508c0.809,0.467,1.622,0.924,2.447,1.372
			c0.446,0.24,0.903,0.467,1.354,0.698c0.582,0.305,1.16,0.615,1.751,0.91c0.134,0.065,0.273,0.129,0.404,0.194
			c0.238,0.115,0.478,0.226,0.716,0.347c0.917,0.439,1.841,0.869,2.775,1.285c0.199,0.088,0.39,0.176,0.587,0.263
			c1.07,0.467,2.149,0.915,3.237,1.345c0.261,0.106,0.524,0.208,0.788,0.31c1.007,0.388,2.029,0.772,3.055,1.132
			c0.129,0.046,0.254,0.088,0.384,0.134c1.125,0.393,2.262,0.758,3.406,1.114c0.273,0.079,0.548,0.166,0.823,0.245
			c1.164,0.351,2.315,0.772,3.517,0.994c76.297,13.914,98.459-45.85,98.459-45.85c-18.613,24.25-51.653,30.646-82.957,23.525
			c-1.185-0.268-2.336-0.638-3.493-0.98c-0.293-0.088-0.582-0.175-0.871-0.263c-1.13-0.347-2.25-0.712-3.364-1.095
			c-0.153-0.055-0.307-0.111-0.462-0.166c-0.998-0.351-1.985-0.721-2.967-1.1c-0.277-0.111-0.555-0.217-0.832-0.328
			c-1.077-0.425-2.146-0.869-3.202-1.331c-0.217-0.093-0.425-0.19-0.64-0.282c-0.908-0.411-1.807-0.827-2.701-1.257
			c-0.259-0.125-0.518-0.245-0.781-0.374c-0.702-0.343-1.397-0.708-2.09-1.064c-0.464-0.244-0.935-0.475-1.395-0.731
			c-0.846-0.452-1.677-0.924-2.504-1.404c-0.28-0.157-0.564-0.309-0.846-0.471c-1.1-0.647-2.186-1.317-3.261-1.997
			c-0.297-0.189-0.587-0.392-0.88-0.587c-0.78-0.503-1.556-1.016-2.321-1.543c-0.254-0.172-0.498-0.356-0.748-0.526
			c-0.738-0.522-1.469-1.05-2.194-1.586c-0.329-0.244-0.653-0.49-0.973-0.734c-0.664-0.509-1.325-1.022-1.98-1.548
			c-0.296-0.236-0.591-0.471-0.883-0.707c-0.832-0.684-1.654-1.372-2.465-2.079c-0.085-0.074-0.178-0.148-0.27-0.226
			c-0.878-0.772-1.74-1.562-2.592-2.357c-0.247-0.236-0.488-0.467-0.73-0.702c-0.631-0.601-1.252-1.206-1.862-1.825
			c-0.245-0.245-0.49-0.485-0.73-0.73c-0.776-0.795-1.539-1.599-2.285-2.417c-0.037-0.042-0.076-0.079-0.113-0.12
			c-0.79-0.864-1.562-1.747-2.317-2.638c-0.206-0.245-0.404-0.481-0.608-0.721c-0.564-0.679-1.123-1.368-1.668-2.061
			c-0.204-0.25-0.409-0.505-0.611-0.763c-0.657-0.852-1.298-1.702-1.927-2.565c-17.38-23.707-23.623-56.404-9.733-83.256"/>
		<path style="fill:#0868AC;" d="M60.288,21.213c-11.409,16.418-10.79,38.396-1.89,55.76c1.493,2.911,3.17,5.735,5.046,8.424
			c1.71,2.449,3.604,5.365,5.873,7.333c0.823,0.906,1.682,1.788,2.56,2.657c0.222,0.226,0.448,0.444,0.675,0.665
			c0.853,0.827,1.719,1.64,2.615,2.431c0.037,0.028,0.069,0.065,0.106,0.093c0.009,0.009,0.019,0.013,0.025,0.024
			c0.991,0.869,2.015,1.705,3.055,2.528c0.231,0.175,0.46,0.36,0.693,0.541c1.042,0.799,2.105,1.585,3.195,2.334
			c0.032,0.024,0.06,0.046,0.093,0.069c0.481,0.333,0.97,0.642,1.458,0.961c0.233,0.153,0.455,0.314,0.691,0.457
			c0.779,0.499,1.566,0.984,2.368,1.451c0.113,0.069,0.224,0.129,0.335,0.194c0.691,0.397,1.391,0.79,2.093,1.169
			c0.245,0.139,0.494,0.259,0.744,0.388c0.485,0.254,0.97,0.513,1.465,0.758c0.074,0.037,0.15,0.069,0.222,0.102
			c1.005,0.494,2.019,0.97,3.055,1.423c0.222,0.097,0.451,0.185,0.675,0.277c0.827,0.351,1.664,0.693,2.504,1.017
			c0.356,0.134,0.716,0.263,1.072,0.393c0.762,0.282,1.527,0.541,2.299,0.799c0.349,0.111,0.691,0.226,1.04,0.333
			c1.097,0.342,2.181,0.772,3.325,0.961c58.908,9.759,72.507-35.595,72.507-35.595c-12.259,17.657-36,26.08-61.335,19.505
			c-1.125-0.296-2.234-0.619-3.336-0.966c-0.337-0.102-0.668-0.212-1.003-0.323c-0.783-0.254-1.562-0.522-2.334-0.804
			c-0.353-0.129-0.707-0.259-1.054-0.393c-0.846-0.323-1.682-0.661-2.511-1.012c-0.226-0.097-0.455-0.185-0.677-0.287
			c-1.04-0.453-2.063-0.929-3.073-1.428c-0.52-0.254-1.03-0.522-1.541-0.786c-0.296-0.152-0.594-0.305-0.89-0.457
			c-0.656-0.356-1.308-0.725-1.95-1.1c-0.152-0.088-0.312-0.171-0.467-0.263c-0.797-0.467-1.583-0.947-2.361-1.442
			c-0.24-0.153-0.471-0.319-0.712-0.476c-0.513-0.333-1.026-0.67-1.53-1.012c-1.086-0.749-2.142-1.534-3.184-2.329
			c-0.24-0.19-0.481-0.374-0.716-0.564c-11.09-8.756-19.88-20.72-24.059-34.287c-4.38-14.071-3.435-29.866,4.153-42.683"/>
		<path style="fill:#0868AC;" d="M101.476,6.94c-6.726,9.898-7.387,22.191-2.719,33.123c4.921,11.603,15.007,20.707,26.777,25.022
			c0.485,0.18,0.97,0.342,1.463,0.508c0.215,0.065,0.427,0.139,0.645,0.203c0.693,0.217,1.382,0.471,2.098,0.605
			c32.527,6.285,41.349-16.691,43.698-20.073c-7.728,11.127-20.716,13.798-36.651,9.931c-1.259-0.307-2.642-0.761-3.856-1.191
			c-1.556-0.555-3.089-1.187-4.579-1.902c-2.83-1.359-5.527-3.009-8.027-4.898C106.064,37.45,97.206,16.81,106.511,0"/>
	</g>
</g>
<g id="Layer_1">
</g>
</svg>
