<?xml version="1.0" encoding="iso-8859-1"?>
<!-- Generator: Adobe Illustrator 17.1.0, SVG Export Plug-In . SVG Version: 6.00 Build 0)  -->
<!DOCTYPE svg PUBLIC "-//W3C//DTD SVG 1.1//EN" "http://www.w3.org/Graphics/SVG/1.1/DTD/svg11.dtd">
<svg version="1.1" xmlns="http://www.w3.org/2000/svg" xmlns:xlink="http://www.w3.org/1999/xlink" x="0px" y="0px"
	 viewBox="0 0 196.621 196.861" style="enable-background:new 0 0 196.621 196.861;" xml:space="preserve">
<g id="umbraco">
	<g>
		<path style="fill:#FF6E00;" d="M0,98.428C0,44.063,44.02,0,98.312,0s98.308,44.063,98.308,98.428
			c0,54.368-44.015,98.433-98.308,98.433S0,152.799,0,98.428z M96.317,132.1c-9.665,0.009-17.249-0.662-22.711-2.051
			c-6.007-1.521-10.148-4.85-12.417-9.979c-2.275-5.131-3.355-13.033-3.241-23.695c0.047-5.748,0.399-11.315,1.044-16.704
			c0.64-5.395,1.282-9.841,1.927-13.362l0.677-3.486c0.017-0.103,0.026-0.208,0.026-0.311c0-0.992-0.717-1.811-1.656-1.97
			l-12.709-1.97c-0.105-0.017-0.208-0.028-0.316-0.028c-0.945,0-1.74,0.653-1.946,1.54c-0.21,0.814-0.344,1.418-0.726,3.351
			c-0.728,3.733-1.394,7.369-2.135,12.616c-0.741,5.247-1.22,11.051-1.435,17.4c0,0-0.307,1.413,0,12.176
			c0.307,10.756,2.156,19.354,5.55,25.787c3.389,6.431,9.139,11.055,17.251,13.881c8.106,2.82,19.399,4.205,33.871,4.143h1.877
			c14.47,0.062,25.761-1.321,33.869-4.143c8.115-2.824,13.864-7.451,17.256-13.881c3.396-6.433,5.243-15.03,5.548-25.787
			c0.309-10.763,0-12.176,0-12.176c-0.213-6.351-0.692-12.152-1.433-17.4c-0.743-5.247-1.409-8.881-2.141-12.616
			c-0.38-1.933-0.509-2.537-0.724-3.351c-0.208-0.887-0.999-1.54-1.944-1.54c-0.11,0-0.215,0.009-0.318,0.028l-12.7,1.97
			c-0.945,0.159-1.656,0.977-1.656,1.97c0,0.103,0.006,0.208,0.021,0.311l0.674,3.486c0.646,3.52,1.289,7.966,1.935,13.362
			c0.642,5.389,0.986,10.956,1.037,16.704c0.114,10.66-0.967,18.564-3.239,23.695c-2.272,5.129-6.411,8.458-12.421,9.979
			c-5.458,1.39-13.044,2.06-22.709,2.051H96.317z"/>
	</g>
</g>
<g id="Layer_1">
</g>
</svg>
