<?xml version="1.0" encoding="iso-8859-1"?>
<!-- Generator: Adobe Illustrator 17.1.0, SVG Export Plug-In . SVG Version: 6.00 Build 0)  -->
<!DOCTYPE svg PUBLIC "-//W3C//DTD SVG 1.1//EN" "http://www.w3.org/Graphics/SVG/1.1/DTD/svg11.dtd">
<svg version="1.1" xmlns="http://www.w3.org/2000/svg" xmlns:xlink="http://www.w3.org/1999/xlink" x="0px" y="0px"
	 viewBox="0 0 129.375 292.308" style="enable-background:new 0 0 129.375 292.308;" xml:space="preserve">
<g id="gulp">
	<g>
		<path style="fill:#E94B4B;" d="M64.261,229.648h-0.3h0.15c-22.107-0.016-40.923-3.386-48.297-8.126l9.036,14.458l3.299,45.018
			c0,0,36.014,25.445,71.619,0l2.613-45.508l7.786-12.736c-8.516,4.081-25.919,6.88-46.056,6.895L64.261,229.648L64.261,229.648z
			 M113.065,168.103c-1.572,1.187-3.11,2.108-4.607,2.757c-1.5,0.651-3.105,0.977-4.817,0.977c-1.605,0-2.845-0.351-3.722-1.052
			c-0.876-0.7-1.315-1.662-1.315-2.889v-0.281c0-0.087,0.011-0.195,0.032-0.32c0.084-0.749,0.412-1.615,0.982-2.589
			c0.57-0.976,1.256-1.989,2.058-3.039c0.802-1.052,1.658-2.114,2.566-3.189c0.908-1.075,1.747-2.093,2.519-3.059
			c0.77-0.96,1.409-1.842,1.915-2.644c0.508-0.801,0.761-1.45,0.761-1.951c0-0.299-0.106-0.537-0.317-0.714
			c-0.212-0.173-0.561-0.262-1.046-0.262c-0.845,0-1.716,0.219-2.614,0.657c-0.898,0.437-1.786,1.026-2.662,1.764
			c-0.876,0.738-1.732,1.583-2.566,2.532c-0.833,0.951-1.615,1.939-2.344,2.964c-0.729,1.026-1.393,2.058-1.995,3.096
			s-1.115,1.995-1.537,2.87l-0.539,1.163c-0.234,0.501-0.487,1.064-0.761,1.689c-0.274,0.626-0.565,1.271-0.871,1.931
			c-0.306,0.664-0.586,1.29-0.839,1.876l-0.679,1.576c-0.203,0.461-0.344,0.782-0.428,0.957c-0.106,0.225-0.28,0.649-0.522,1.275
			c-0.243,0.626-0.522,1.358-0.839,2.195l-0.998,2.646c-0.348,0.925-0.675,1.801-0.982,2.626c-0.306,0.825-0.576,1.551-0.806,2.177
			c-0.234,0.624-0.382,1.05-0.446,1.274c-0.21,0.651-0.458,1.263-0.743,1.839c-0.286,0.574-0.612,1.081-0.983,1.52
			c-0.369,0.437-0.792,0.788-1.268,1.05c-0.476,0.265-1.009,0.394-1.599,0.394c-0.761,0-1.389-0.182-1.886-0.545
			c-0.495-0.362-0.743-1.057-0.743-2.082c0-0.501,0.063-1.014,0.19-1.539c0.127-0.525,0.286-1.046,0.476-1.557
			c0.19-0.515,0.386-1.014,0.585-1.5c0.201-0.488,0.387-0.958,0.553-1.407c1.141-2.501,2.303-5.01,3.485-7.523
			c1.182-2.513,2.317-5.002,3.406-7.466c0.228-0.514,0.434-1.018,0.655-1.528l-0.196,0.196c-1.373,1.327-2.74,2.497-4.102,3.508
			c-1.364,1.013-2.715,1.82-4.055,2.421c-1.34,0.599-2.646,0.899-3.912,0.899c-0.865,0-1.588-0.137-2.169-0.412
			c-0.581-0.275-1.046-0.651-1.395-1.125c-0.349-0.476-0.598-1.038-0.745-1.689c-0.05-0.222-0.081-0.455-0.113-0.686
			c-0.371,0.289-0.745,0.57-1.122,0.836c-1.308,0.925-2.597,1.67-3.865,2.232c-1.266,0.562-2.407,0.844-3.42,0.844
			c-1.015,0-1.838-0.337-2.472-1.013c-0.633-0.675-0.95-1.826-0.95-3.451c0-1.151,0.17-2.49,0.507-4.015
			c-0.55,0.976-1.236,1.964-2.058,2.964c-0.825,1.001-1.764,1.914-2.819,2.74c-1.057,0.825-2.24,1.494-3.548,2.007
			c-1.31,0.513-2.736,0.77-4.277,0.77c-0.697,0-1.367-0.086-2.012-0.263c-0.644-0.174-1.209-0.476-1.695-0.9
			c-0.486-0.424-0.876-0.993-1.172-1.707c-0.296-0.712-0.443-1.608-0.443-2.683c0-0.025,0.042-0.406,0.127-1.146
			c0.084-0.738,0.354-1.9,0.807-3.49c0.455-1.587,1.156-3.646,2.106-6.172c0.951-2.528,2.292-5.59,4.024-9.191
			c0.443-0.951,0.956-1.633,1.536-2.045c0.581-0.413,1.209-0.62,1.885-0.62c0.296,0,0.602,0.044,0.919,0.131
			c0.318,0.088,0.612,0.225,0.888,0.413c0.274,0.187,0.496,0.425,0.666,0.712c0.168,0.287,0.253,0.618,0.253,0.994
			c0,0.25-0.032,0.488-0.096,0.712c-0.106,0.427-0.332,0.982-0.68,1.67c-0.349,0.689-0.755,1.477-1.22,2.365
			c-0.464,0.889-0.956,1.845-1.472,2.872c-0.519,1.024-0.998,2.089-1.441,3.188c-0.443,1.101-0.824,2.22-1.141,3.358
			c-0.317,1.138-0.497,2.246-0.538,3.32c0,0.451,0.105,0.863,0.317,1.239c0.21,0.375,0.559,0.562,1.046,0.562
			c1.372,0,2.681-0.451,3.928-1.35c1.245-0.901,2.396-2.02,3.453-3.358c1.055-1.337,2.011-2.777,2.867-4.316
			c0.856-1.539,1.568-2.944,2.138-4.221c0.402-0.85,0.755-1.764,1.061-2.739c0.306-0.976,0.639-1.876,0.998-2.702
			c0.359-0.826,0.77-1.514,1.236-2.064c0.464-0.55,1.046-0.825,1.742-0.825c0.762,0,1.363,0.288,1.806,0.863
			c0.443,0.576,0.664,1.263,0.664,2.062c0,0.451-0.142,1.07-0.426,1.858c-0.284,0.788-0.644,1.689-1.079,2.702
			c-0.433,1.013-0.902,2.095-1.409,3.245c-0.507,1.151-0.978,2.32-1.409,3.508c-0.433,1.188-0.792,2.351-1.077,3.489
			c-0.286,1.138-0.427,2.195-0.427,3.17c0,0.901,0.464,1.352,1.393,1.352c0.655,0,1.468-0.225,2.439-0.675
			c0.972-0.45,1.991-1.083,3.057-1.895c0.267-0.204,0.534-0.415,0.801-0.638c0.299-1.228,0.646-2.363,1.052-3.395
			c0.739-1.952,1.489-3.89,2.249-5.816c0.76-1.927,1.456-3.691,2.09-5.293l9.598-24.201c0.38-0.975,0.893-1.664,1.536-2.064
			c0.645-0.4,1.294-0.6,1.949-0.6c0.654,0,1.25,0.213,1.789,0.638c0.539,0.426,0.808,1.113,0.808,2.064
			c0,0.45-0.09,0.926-0.269,1.425c-0.179,0.501-0.406,1.038-0.681,1.614c-0.527,1.176-1.156,2.614-1.885,4.315
			c-0.729,1.701-1.511,3.552-2.344,5.553c-0.834,2.001-1.689,4.084-2.565,6.248c-0.876,2.164-1.732,4.271-2.565,6.322
			c-0.833,2.053-1.616,3.996-2.344,5.835c-0.729,1.838-1.356,3.434-1.885,4.784c-0.234,0.576-0.459,1.245-0.68,2.008
			c-0.222,0.763-0.332,1.444-0.332,2.045c0,0.374,0.063,0.675,0.19,0.899c0.127,0.224,0.369,0.338,0.729,0.338
			c0.444,0,0.997-0.156,1.662-0.47c0.666-0.312,1.383-0.726,2.154-1.239c0.771-0.513,1.574-1.1,2.407-1.764
			c0.834-0.663,1.664-1.35,2.487-2.063c0.825-0.713,1.611-1.428,2.36-2.139c0.749-0.712,1.421-1.368,2.013-1.969
			c0.139-0.144,0.305-0.246,0.487-0.323c0.357-1.064,0.681-2.108,0.969-3.128c0.17-0.452,0.402-1.088,0.698-1.914
			c0.295-0.827,0.633-1.639,1.013-2.439c0.38-0.8,0.808-1.494,1.282-2.082c0.476-0.587,0.988-0.882,1.537-0.882
			c0.845,0,1.458,0.194,1.838,0.581c0.38,0.389,0.57,0.957,0.57,1.709c0,0.149-0.02,0.387-0.063,0.712
			c-0.043,0.325-0.094,0.671-0.158,1.032c-0.063,0.361-0.133,0.707-0.205,1.032c-0.076,0.326-0.142,0.562-0.205,0.712
			c0.779-0.851,1.625-1.695,2.533-2.531c0.908-0.837,1.848-1.596,2.819-2.271c0.972-0.675,1.964-1.225,2.978-1.652
			c1.014-0.424,2.027-0.637,3.04-0.637c0.697,0,1.389,0.1,2.075,0.3c0.686,0.2,1.301,0.495,1.838,0.881
			c0.539,0.389,0.978,0.876,1.315,1.463c0.336,0.587,0.507,1.269,0.507,2.045c0,1.026-0.259,2.12-0.776,3.283
			c-0.517,1.163-1.166,2.332-1.948,3.506c-0.781,1.177-1.626,2.32-2.533,3.434c-0.908,1.113-1.758,2.125-2.55,3.038
			c-0.793,0.915-1.459,1.689-1.996,2.327c-0.537,0.639-0.819,1.07-0.839,1.296c0,0.299,0.096,0.544,0.286,0.732
			c0.19,0.187,0.507,0.281,0.95,0.281c0.36,0,0.888-0.201,1.585-0.601c0.697-0.4,1.674-1.094,2.93-2.082
			c1.256-0.989,2.852-2.314,4.785-3.978c1.325-1.14,2.876-2.498,4.625-4.045l8.94-77.576h-0.06
			c-9.066,4.341-34.538,8.927-64.546,8.927c-30.003,0-55.476-4.586-64.544-8.927H0.109l6.792,71.205
			c0.36-1.226,0.761-2.451,1.205-3.672c0.908-2.501,1.959-4.947,3.152-7.336c1.193-2.388,2.492-4.647,3.897-6.772
			c1.404-2.126,2.898-4.084,4.482-5.872c1.585-1.788,3.21-3.327,4.879-4.615c1.668-1.288,3.352-2.295,5.052-3.021
			c1.701-0.725,3.385-1.088,5.053-1.088c1.922,0,3.78,0.525,5.575,1.576c1.795,1.051,3.473,2.752,5.037,5.103
			c0.359,0.525,0.586,1.057,0.68,1.594c0.096,0.538,0.142,1.045,0.142,1.52c0,1.125-0.269,2.014-0.807,2.664
			c-0.538,0.651-1.177,0.975-1.916,0.975c-0.676,0-1.304-0.357-1.885-1.069s-1.23-1.732-1.949-3.058
			c-0.675-1.201-1.42-2.069-2.233-2.608c-0.813-0.537-1.695-0.807-2.645-0.807c-1.478,0-3.057,0.613-4.736,1.839
			c-1.68,1.226-3.343,2.846-4.989,4.859c-1.648,2.013-3.226,4.315-4.736,6.904c-1.51,2.589-2.846,5.241-4.007,7.954
			c-1.162,2.716-2.085,5.391-2.771,8.03c-0.687,2.638-1.03,5.01-1.03,7.11c0,0.702,0.047,1.422,0.142,2.157
			c0.096,0.738,0.274,1.407,0.539,2.008c0.264,0.601,0.623,1.093,1.077,1.481c0.455,0.39,1.03,0.581,1.726,0.581
			c0.782,0,1.668-0.262,2.661-0.788c0.992-0.523,2.023-1.212,3.088-2.062c1.067-0.852,2.139-1.814,3.216-2.89
			c1.078-1.076,2.081-2.163,3.009-3.264c0.929-1.1,1.753-2.157,2.47-3.17c0.718-1.014,1.257-1.896,1.616-2.647l2.946-8.817
			c0.359-0.95,0.828-1.625,1.41-2.026c0.58-0.4,1.177-0.6,1.79-0.6c0.295,0,0.59,0.051,0.887,0.15
			c0.296,0.1,0.559,0.256,0.792,0.469c0.233,0.213,0.417,0.488,0.554,0.825c0.137,0.338,0.205,0.732,0.205,1.181
			c0,1.201-0.106,2.326-0.317,3.377c-0.21,1.052-0.48,2.076-0.807,3.078c-0.328,0.999-0.692,2.006-1.093,3.02
			c-0.401,1.013-0.792,2.07-1.172,3.171c-0.084,0.125-0.237,0.519-0.459,1.18c-0.222,0.664-0.49,1.495-0.807,2.497
			c-0.317,1.001-0.66,2.12-1.03,3.358c-0.369,1.239-0.749,2.5-1.14,3.789c-0.392,1.288-0.766,2.552-1.125,3.79
			c-0.359,1.238-0.681,2.357-0.966,3.358c-0.286,1-0.522,1.838-0.713,2.513c-0.19,0.675-0.306,1.076-0.348,1.202
			c-0.106,0.398-0.275,0.844-0.507,1.332c-0.233,0.487-0.507,0.951-0.825,1.389c-0.317,0.437-0.665,0.801-1.046,1.087
			c-0.38,0.288-0.77,0.431-1.172,0.431c-0.675,0-1.167-0.226-1.472-0.675c-0.307-0.451-0.459-1.275-0.459-2.476v-0.525
			c0-0.175,0.011-0.363,0.031-0.562c0.02-0.4,0.179-1.151,0.476-2.252c0.296-1.1,0.649-2.343,1.061-3.731
			c0.412-1.389,0.856-2.827,1.331-4.316c0.475-1.49,0.902-2.819,1.283-3.996c-1.12,1.251-2.334,2.496-3.643,3.733
			c-1.309,1.239-2.651,2.351-4.023,3.34c-1.373,0.989-2.756,1.795-4.15,2.421c-1.394,0.624-2.735,0.938-4.023,0.938
			c-1.478,0-2.751-0.326-3.817-0.976c-0.193-0.118-0.374-0.25-0.555-0.382l4.316,45.245l2.512,4.018
			c7.373,4.739,26.19,8.11,48.297,8.126c20.137-0.016,37.54-2.813,46.057-6.895l3.211-5.249l6.197-53.778
			c-0.513,0.47-1.01,0.928-1.487,1.373C116.313,165.496,114.639,166.915,113.065,168.103L113.065,168.103z M64.688,66.387
			C28.962,66.387,0,69.744,0,73.885c0,4.139,28.962,10.227,64.688,10.227c35.73,0,64.687-6.088,64.687-10.227
			C129.376,69.744,100.418,66.387,64.688,66.387z M76.225,78.218c-4.136,0-7.816-1.251-7.816-2.328c0-0.413,0.545-0.851,1.444-1.235
			c0.499-0.919,3.158-1.621,6.371-1.621c3.164,0,5.793,0.681,6.35,1.579c0.989,0.394,1.6,0.85,1.6,1.279
			C84.175,76.967,80.362,78.218,76.225,78.218z M76.225,76.9c3.569,0,6.463-0.865,6.463-1.934c0-0.121-0.041-0.24-0.113-0.355
			c-1.493-0.596-3.86-1.049-6.35-1.049c-2.549,0-4.923,0.476-6.371,1.093c-0.054,0.102-0.091,0.205-0.091,0.312
			C69.761,76.035,72.654,76.9,76.225,76.9L76.225,76.9z M123.361,6.495L114.718,0l-34.79,36.608l-9.921,38.31h12.539l9.702-33.981
			L123.361,6.495z"/>
	</g>
</g>
<g id="Layer_1">
</g>
</svg>
