<?xml version="1.0" encoding="iso-8859-1"?>
<!-- Generator: Adobe Illustrator 17.1.0, SVG Export Plug-In . SVG Version: 6.00 Build 0)  -->
<!DOCTYPE svg PUBLIC "-//W3C//DTD SVG 1.1//EN" "http://www.w3.org/Graphics/SVG/1.1/DTD/svg11.dtd">
<svg version="1.1" xmlns="http://www.w3.org/2000/svg" xmlns:xlink="http://www.w3.org/1999/xlink" x="0px" y="0px"
	 viewBox="0 0 168.489 166.055" style="enable-background:new 0 0 168.489 166.055;" xml:space="preserve">
<g id="shopify">
	<g>
		<g>
			
				<linearGradient id="SVGID_1_" gradientUnits="userSpaceOnUse" x1="-44.2906" y1="129.4914" x2="-44.2906" y2="118.7984" gradientTransform="matrix(1 0 0 -1 91.1 252.4)">
				<stop  offset="0" style="stop-color:#000000;stop-opacity:0"/>
				<stop  offset="1" style="stop-color:#000000;stop-opacity:0.52"/>
			</linearGradient>
			<path style="fill:url(#SVGID_1_);" d="M91.333,43.075c-1.033-0.203-3.495-5.601-3.751-5.54c0,0-60.331,17.586-61.145,18.56
				C25.547,57.164,0.001,147.49,0.001,147.49l93.617,17.541L91.333,43.075z"/>
			
				<linearGradient id="SVGID_2_" gradientUnits="userSpaceOnUse" x1="27.0125" y1="132.5515" x2="27.0125" y2="121.0817" gradientTransform="matrix(1 0 0 -1 91.1 252.4)">
				<stop  offset="0" style="stop-color:#000000;stop-opacity:0"/>
				<stop  offset="1" style="stop-color:#000000;stop-opacity:0.52"/>
			</linearGradient>
			<path style="fill:url(#SVGID_2_);" d="M117.478,40.866c0,0-0.137-0.739-0.555-1.01c-0.42-0.27-0.877-0.323-0.877-0.323
				l-13.213-0.984l-9.724-9.661c-0.362-0.283-0.791-0.447-1.226-0.532l1.735,136.68l50.724-10.978L117.478,40.866z"/>
		</g>
		
			<linearGradient id="SVGID_3_" gradientUnits="userSpaceOnUse" x1="39.0761" y1="93.1551" x2="-34.2137" y2="117.6427" gradientTransform="matrix(1 0 0 -1 91.1 252.4)">
			<stop  offset="0" style="stop-color:#000000;stop-opacity:0"/>
			<stop  offset="1" style="stop-color:#000000;stop-opacity:0.4"/>
		</linearGradient>
		<polygon style="fill:url(#SVGID_3_);" points="93.622,165.022 147.381,166.055 168.489,154.056 144.454,154.038 		"/>
		<path style="opacity:0.3;fill:#FFFFFF;enable-background:new    ;" d="M93.759,46.815c2.005,0.69,3.987-0.623,4.422-2.931
			c0.438-2.306-0.835-4.736-2.841-5.425c-2.007-0.69-3.988,0.62-4.423,2.93C90.481,43.698,91.753,46.129,93.759,46.815z"/>
		<path style="opacity:0.62;fill:#595961;enable-background:new    ;" d="M53.765,54.588c-0.134,0-0.271-0.01-0.411-0.03
			c-1.583-0.222-2.905-1.652-2.956-3.196c-0.049-1.51-0.97-37.08,19.889-45.171c5.265-2.042,10.047-1.584,14.211,1.366
			c5.008,3.544,8.658,10.542,10.853,20.799c1.55,7.252,1.802,13.499,1.813,13.761c0.058,1.545-1.178,2.624-2.76,2.41
			c-1.583-0.214-2.913-1.64-2.972-3.183c-0.249-6.444-2.48-24.282-9.713-29.398c-2.317-1.638-5.12-1.783-8.57-0.445
			c-17.88,6.935-17.031,40.33-17.02,40.667C56.173,53.574,55.145,54.588,53.765,54.588z"/>
		<path style="opacity:0.62;fill:#595961;enable-background:new    ;" d="M53.765,54.588c-0.134,0-0.271-0.01-0.411-0.03
			c-1.583-0.222-2.905-1.652-2.956-3.196c-0.049-1.51-0.97-37.08,19.889-45.171c5.265-2.042,10.047-1.584,14.211,1.366
			c5.008,3.544,8.658,10.542,10.853,20.799c1.55,7.252,1.802,13.499,1.813,13.761c0.058,1.545-1.178,2.624-2.76,2.41
			c-1.583-0.214-2.913-1.64-2.972-3.183c-0.249-6.444-2.48-24.282-9.713-29.398c-2.317-1.638-5.12-1.783-8.57-0.445
			c-17.88,6.935-17.031,40.33-17.02,40.667C56.173,53.574,55.145,54.588,53.765,54.588z"/>
		<path style="opacity:0.46;fill:#B2B2C2;enable-background:new    ;" d="M83.5,7.675c-3.784-2.678-8.263-3.09-13.154-1.192
			C61.872,9.77,55.84,18.524,52.904,31.801c-2.175,9.835-1.921,18.638-1.91,19.008c0.015,0.467,0.216,0.932,0.565,1.309
			c0.35,0.377,0.805,0.621,1.28,0.689c0.088,0.012,0.174,0.019,0.259,0.019c0.871,0,1.507-0.651,1.479-1.513
			c-0.011-0.343-0.89-34.355,17.557-41.511c3.734-1.447,6.995-1.246,9.628,0.619c7.686,5.438,10.016,23.762,10.267,30.365
			c0.036,0.964,0.87,1.857,1.86,1.991c0.995,0.13,1.758-0.561,1.722-1.506C95.57,40.218,94.508,15.466,83.5,7.675z"/>
		<path style="opacity:0.46;fill:#B2B2C2;enable-background:new    ;" d="M52.912,51.765c-0.05,0-0.102-0.003-0.154-0.011
			c-0.594-0.083-1.091-0.62-1.11-1.198c-0.011-0.365-0.267-9.065,1.896-18.848c2.894-13.084,8.805-21.7,17.098-24.916
			c4.682-1.817,8.871-1.454,12.449,1.078c10.659,7.544,11.702,31.912,11.741,32.947c0.022,0.579-0.441,0.981-1.034,0.903
			c-0.592-0.08-1.092-0.615-1.113-1.193c-0.01-0.241-1.034-24.217-10.636-31.01C79.175,7.484,75.7,7.237,71.714,8.783
			c-18.82,7.299-17.928,41.727-17.917,42.073C53.815,51.384,53.43,51.765,52.912,51.765z"/>
		<path style="opacity:0.62;fill:#595961;enable-background:new    ;" d="M60.583,24.478c0.804-1.409,1.525-2.873,2.169-4.362
			c-0.296,0.496-2.168,5.457-8.022,4.697C54.73,24.811,58.198,25.854,60.583,24.478z"/>
		<path style="opacity:0.62;fill:#595961;enable-background:new    ;" d="M58.486,30.628c0.606-1.526,1.123-3.097,1.565-4.686
			c-0.226,0.54-1.17,5.69-7.209,5.73C52.841,31.672,56.34,32.311,58.486,30.628z"/>
		<path style="opacity:0.62;fill:#595961;enable-background:new    ;" d="M57.131,36.84c0.443-1.603,0.794-3.241,1.069-4.893
			c-0.168,0.568-0.292,5.792-6.489,6.489C51.71,38.437,55.197,38.749,57.131,36.84z"/>
		<path style="opacity:0.62;fill:#595961;enable-background:new    ;" d="M91.884,18.37c-0.755-1.699-1.592-3.373-2.491-5.008
			c0.26,0.609,3.149,5.967-0.052,9.858C89.342,23.22,91.853,21.286,91.884,18.37z"/>
		<path style="opacity:0.62;fill:#595961;enable-background:new    ;" d="M86.66,9.754c-1.498-1.201-3.044-2.334-4.614-3.398
			c0.528,0.437,5.634,3.953,5.34,9.312C87.385,15.666,88.227,12.516,86.66,9.754z"/>
		<path style="opacity:0.62;fill:#595961;enable-background:new    ;" d="M94.382,27.086c-0.432-1.755-0.953-3.501-1.542-5.223
			c0.143,0.627,2.02,6.258-1.996,9.335C90.846,31.199,93.776,29.845,94.382,27.086z"/>
		<path style="opacity:0.62;fill:#595961;enable-background:new    ;" d="M96.421,35.98c-0.211-1.757-0.515-3.515-0.891-5.26
			c0.065,0.626,1.243,6.324-3.226,8.806C92.304,39.526,95.449,38.58,96.421,35.98z"/>
		<path style="opacity:0.62;fill:#595961;enable-background:new    ;" d="M56.19,43.834c0.236-1.677,0.38-3.379,0.447-5.086
			c-0.095,0.595-0.032,6.017-5.524,7.34C51.112,46.088,54.54,45.997,56.19,43.834z"/>
		<path style="opacity:0.62;fill:#595961;enable-background:new    ;" d="M63.354,19.269c1.106-1.172,2.137-2.411,3.099-3.69
			c-0.403,0.41-3.534,4.271-9.108,2.838C57.344,18.418,60.651,20.093,63.354,19.269z"/>
		<path style="opacity:0.62;fill:#595961;enable-background:new    ;" d="M66.888,14.944c1.331-0.928,2.599-1.931,3.804-2.986
			c-0.482,0.322-4.35,3.466-9.756,1.134C60.937,13.092,63.995,15.264,66.888,14.944z"/>
		<path style="opacity:0.62;fill:#595961;enable-background:new    ;" d="M72.061,11.764c1.613-0.469,3.184-1.026,4.704-1.647
			c-0.581,0.157-5.395,1.931-10.174-1.711C66.59,8.407,69.048,11.243,72.061,11.764z"/>
		<path style="opacity:0.62;fill:#595961;enable-background:new    ;" d="M76.685,10.056c1.356,0.191,2.708,0.315,4.043,0.381
			c-0.484-0.077-4.647-0.409-7.08-4.204C73.647,6.231,74.594,8.801,76.685,10.056z"/>
		<path style="opacity:0.62;fill:#595961;enable-background:new    ;" d="M82.192,12.134c0.997,1.063,2.039,2.082,3.11,3.056
			c-0.35-0.384-3.595-3.497-2.892-7.441C82.41,7.749,81.348,9.929,82.192,12.134z"/>
		
			<linearGradient id="SVGID_4_" gradientUnits="userSpaceOnUse" x1="-55.5202" y1="245.2139" x2="-64.8619" y2="206.0283" gradientTransform="matrix(1 0 -0.1763 -1 173.6449 252.4)">
			<stop  offset="0" style="stop-color:#FFFFFF;stop-opacity:0.65"/>
			<stop  offset="1" style="stop-color:#FFFFFF;stop-opacity:0"/>
		</linearGradient>
		<path style="opacity:0.74;fill:url(#SVGID_4_);enable-background:new    ;" d="M93.703,40.242
			C93.665,39.22,92.632,15.137,82.238,7.78c-1.965-1.391-4.153-2.097-6.502-2.097c-1.705,0-3.53,0.372-5.419,1.105
			C62.162,9.95,56.339,18.461,53.478,31.4c-2.145,9.7-1.897,18.363-1.884,18.728c0.01,0.288,0.258,0.557,0.555,0.599
			c0.028,0.004,0.052,0.006,0.077,0.006c0.261,0,0.45-0.196,0.443-0.455c-0.011-0.35-0.906-35.091,18.185-42.496
			c4.14-1.606,7.834-1.322,10.862,0.82c9.873,6.986,10.902,31.25,10.912,31.496c0.01,0.288,0.261,0.556,0.557,0.597
			c0.023,0.002,0.048,0.004,0.072,0.004C93.521,40.698,93.712,40.502,93.703,40.242z"/>
		<g>
			
				<linearGradient id="SVGID_5_" gradientUnits="userSpaceOnUse" x1="-46.0293" y1="233.0958" x2="-41.5735" y2="202.9916" gradientTransform="matrix(1 0 -0.1763 -1 173.6449 252.4)">
				<stop  offset="0" style="stop-color:#000000;stop-opacity:0"/>
				<stop  offset="1" style="stop-color:#000000;stop-opacity:0.4"/>
			</linearGradient>
			<path style="fill:url(#SVGID_5_);" d="M95.35,28.357C93.155,18.1,89.505,11.101,84.497,7.558
				c-2.716-1.922-5.696-2.779-8.899-2.582c2.537,0.161,4.924,1.016,7.135,2.582c5.008,3.544,8.659,10.542,10.852,20.799
				c1.55,7.252,1.802,13.499,1.813,13.761c0.041,1.103-0.579,1.965-1.511,2.293c0.168,0.052,0.341,0.093,0.517,0.116
				c1.582,0.214,2.818-0.865,2.76-2.41C97.152,41.856,96.901,35.609,95.35,28.357z"/>
		</g>
		
			<linearGradient id="SVGID_6_" gradientUnits="userSpaceOnUse" x1="-75.0476" y1="212.7284" x2="-59.4257" y2="245.51" gradientTransform="matrix(1 0 -0.1763 -1 173.6449 252.4)">
			<stop  offset="0" style="stop-color:#000000;stop-opacity:0"/>
			<stop  offset="1" style="stop-color:#000000;stop-opacity:0.4"/>
		</linearGradient>
		<path style="fill:url(#SVGID_6_);" d="M71.385,11.501c-17.88,6.935-17.032,40.33-17.021,40.667
			c0.034,1.096-0.583,1.951-1.51,2.276c0.163,0.05,0.329,0.09,0.5,0.114c0.14,0.02,0.277,0.03,0.411,0.03
			c1.38,0,2.409-1.014,2.365-2.42c-0.011-0.337-0.859-33.732,17.02-40.667c1.207-0.468,2.334-0.751,3.389-0.855
			C74.999,10.477,73.29,10.761,71.385,11.501z"/>
		
			<linearGradient id="SVGID_7_" gradientUnits="userSpaceOnUse" x1="-23.0371" y1="236.7236" x2="-14.5664" y2="194.0164" gradientTransform="matrix(1 0 0 -1 91.1 252.4)">
			<stop  offset="0" style="stop-color:#000000;stop-opacity:0"/>
			<stop  offset="1" style="stop-color:#000000;stop-opacity:0.4"/>
		</linearGradient>
		<path style="fill:url(#SVGID_7_);" d="M53.765,54.588c-0.134,0-0.271-0.01-0.411-0.03c-1.583-0.222-2.905-1.652-2.956-3.196
			c-0.049-1.51-0.97-37.08,19.889-45.171c5.265-2.042,10.047-1.584,14.211,1.366c5.008,3.544,8.658,10.542,10.853,20.799
			c1.55,7.252,1.802,13.499,1.813,13.761c0.058,1.545-1.178,2.624-2.76,2.41c-1.583-0.214-2.913-1.64-2.972-3.183
			c-0.249-6.444-2.48-24.282-9.713-29.398c-2.317-1.638-5.12-1.783-8.57-0.445c-17.88,6.935-17.031,40.33-17.02,40.667
			C56.173,53.574,55.145,54.588,53.765,54.588z"/>
		
			<linearGradient id="SVGID_8_" gradientUnits="userSpaceOnUse" x1="-5.7511" y1="225.2661" x2="-56.7265" y2="99.7611" gradientTransform="matrix(1 0 0 -1 91.1 252.4)">
			<stop  offset="0" style="stop-color:#B8D26E"/>
			<stop  offset="1" style="stop-color:#7FB525"/>
		</linearGradient>
		<path style="fill:url(#SVGID_8_);" d="M98.482,19.732L17.808,44.713c0,0-3.461,0.983-4.275,1.958
			c-0.892,1.069-1.063,3.954-1.063,3.954L0,146.812l93.617,17.54l7.208-144.701C99.792,19.448,98.738,19.671,98.482,19.732z"/>
		
			<linearGradient id="SVGID_9_" gradientUnits="userSpaceOnUse" x1="69.9863" y1="170.4042" x2="22.7001" y2="162.9936" gradientTransform="matrix(1 0 0 -1 91.1 252.4)">
			<stop  offset="0" style="stop-color:#B4E034"/>
			<stop  offset="1" style="stop-color:#60A927"/>
		</linearGradient>
		<path style="fill:url(#SVGID_9_);" d="M126.422,32.165c0,0-0.136-0.739-0.556-1.01c-0.419-0.27-0.876-0.323-0.876-0.323
			l-13.213-0.985l-9.724-9.661c-0.364-0.283-0.791-0.447-1.228-0.532l-7.208,144.7l50.724-10.979L126.422,32.165z"/>
		
			<linearGradient id="SVGID_10_" gradientUnits="userSpaceOnUse" x1="-40.0981" y1="161.2982" x2="-52.4507" y2="60.7127" gradientTransform="matrix(0.9991 0.0435 0.0435 -0.9991 83.4047 253.2884)">
			<stop  offset="0" style="stop-color:#1D1D1B;stop-opacity:0.5"/>
			<stop  offset="0.0896" style="stop-color:#1D1D1B;stop-opacity:0.4552"/>
			<stop  offset="1" style="stop-color:#1D1D1B;stop-opacity:0"/>
		</linearGradient>
		<path style="opacity:0.47;fill:url(#SVGID_10_);enable-background:new    ;" d="M64.265,99.149
			c-1.435-1.933-3.104-3.63-4.87-5.134c-1.739-1.482-3.566-2.773-5.356-3.92c-1.276-0.798-2.382-1.565-3.32-2.318
			c-0.931-0.746-1.699-1.482-2.304-2.217c-0.602-0.732-1.045-1.467-1.329-2.221c-0.283-0.752-0.407-1.523-0.373-2.328
			c0.047-1.087,0.288-2.069,0.701-2.939c0.414-0.872,1.003-1.63,1.746-2.265c0.748-0.637,1.655-1.15,2.7-1.523
			c1.054-0.377,2.253-0.611,3.574-0.689c1.441-0.085,2.83-0.041,4.154,0.096c1.337,0.138,2.605,0.371,3.784,0.66
			c1.189,0.292,2.286,0.64,3.272,1.006c0.993,0.369,1.872,0.754,2.614,1.115l6.244-18.605c-0.929-0.475-2.055-0.91-3.356-1.278
			c-1.288-0.364-2.743-0.661-4.339-0.865c-1.577-0.2-3.287-0.309-5.108-0.301c-1.795,0.009-3.692,0.13-5.669,0.39
			c-4.263,0.559-8.11,1.737-11.473,3.417c-3.271,1.635-6.106,3.755-8.439,6.272c-2.288,2.466-4.111,5.332-5.398,8.525
			c-1.274,3.16-2.035,6.669-2.2,10.476c-0.099,2.276,0.13,4.368,0.624,6.298c0.498,1.94,1.265,3.728,2.242,5.38
			c0.985,1.667,2.188,3.203,3.544,4.623c1.374,1.437,2.909,2.758,4.539,3.976c1.329,0.972,2.452,1.886,3.388,2.774
			c0.942,0.895,1.69,1.759,2.265,2.621c0.578,0.867,0.977,1.731,1.222,2.624c0.246,0.893,0.336,1.813,0.292,2.788
			c-0.042,0.976-0.252,1.89-0.624,2.7c-0.371,0.808-0.902,1.509-1.588,2.065c-0.681,0.552-1.515,0.959-2.492,1.179
			c-0.969,0.218-2.077,0.255-3.316,0.072c-1.404-0.207-2.819-0.612-4.196-1.139c-1.358-0.522-2.68-1.162-3.916-1.852
			c-1.222-0.683-2.362-1.414-3.377-2.128c-1.005-0.708-1.888-1.398-2.609-2.009l-4.277,14.187c0.709,0.908,1.611,1.814,2.672,2.69
			c1.073,0.885,2.312,1.742,3.681,2.538c1.387,0.808,2.911,1.556,4.535,2.212c1.647,0.666,3.4,1.237,5.217,1.679
			c0.03,0.007,0.062,0.014,0.092,0.02c0.03,0.008,0.061,0.014,0.091,0.02c0.031,0.008,0.062,0.014,0.091,0.022
			c0.031,0.007,0.061,0.014,0.092,0.02c3.873,0.856,7.632,1.064,11.136,0.596c3.61-0.484,6.925-1.684,9.79-3.618
			c2.93-1.979,5.36-4.709,7.123-8.185c1.784-3.518,2.863-7.762,3.077-12.683c0.131-3.01-0.285-5.742-1.105-8.219
			C66.924,103.294,65.717,101.104,64.265,99.149z"/>
		
			<linearGradient id="SVGID_11_" gradientUnits="userSpaceOnUse" x1="-39.1616" y1="160.3614" x2="-51.5143" y2="59.7757" gradientTransform="matrix(0.9991 0.0435 0.0435 -0.9991 83.4047 253.2884)">
			<stop  offset="0" style="stop-color:#FFFFFF"/>
			<stop  offset="1" style="stop-color:#CECEEB"/>
		</linearGradient>
		<path style="fill:url(#SVGID_11_);" d="M65.16,100.124c-1.434-1.931-3.105-3.629-4.87-5.133c-1.739-1.483-3.567-2.774-5.356-3.92
			c-1.276-0.797-2.382-1.565-3.32-2.317c-0.931-0.747-1.699-1.483-2.304-2.217c-0.602-0.733-1.046-1.468-1.329-2.222
			c-0.284-0.752-0.408-1.523-0.374-2.328c0.048-1.087,0.288-2.07,0.701-2.938c0.415-0.873,1.004-1.63,1.747-2.265
			c0.748-0.638,1.655-1.151,2.699-1.523c1.054-0.376,2.253-0.611,3.574-0.689c1.44-0.085,2.83-0.04,4.153,0.096
			c1.338,0.139,2.606,0.371,3.784,0.66c1.19,0.291,2.287,0.64,3.272,1.005c0.994,0.369,1.872,0.755,2.614,1.115l6.244-18.606
			c-0.927-0.475-2.054-0.91-3.355-1.277c-1.289-0.364-2.743-0.661-4.34-0.865c-1.577-0.201-3.288-0.309-5.109-0.301
			c-1.794,0.009-3.692,0.13-5.669,0.389c-4.262,0.559-8.109,1.737-11.472,3.417c-3.271,1.635-6.107,3.756-8.439,6.272
			c-2.288,2.466-4.111,5.332-5.398,8.525c-1.274,3.16-2.036,6.669-2.201,10.477c-0.099,2.276,0.13,4.368,0.625,6.298
			c0.497,1.94,1.265,3.728,2.241,5.378c0.986,1.669,2.189,3.204,3.546,4.623c1.373,1.438,2.908,2.76,4.539,3.976
			c1.329,0.972,2.452,1.886,3.387,2.775c0.943,0.894,1.69,1.759,2.266,2.621c0.577,0.868,0.976,1.73,1.222,2.624
			c0.246,0.894,0.335,1.812,0.292,2.789c-0.043,0.975-0.252,1.888-0.624,2.698c-0.37,0.808-0.902,1.511-1.588,2.066
			c-0.682,0.553-1.515,0.958-2.491,1.179c-0.97,0.219-2.077,0.256-3.317,0.072c-1.404-0.207-2.82-0.613-4.196-1.139
			c-1.358-0.522-2.679-1.163-3.915-1.852c-1.222-0.683-2.362-1.414-3.377-2.129c-1.005-0.706-1.889-1.398-2.609-2.007l-4.276,14.187
			c0.708,0.907,1.61,1.813,2.671,2.688c1.073,0.885,2.312,1.742,3.681,2.539c1.388,0.808,2.912,1.556,4.535,2.212
			c1.648,0.666,3.4,1.238,5.217,1.678c0.031,0.008,0.061,0.014,0.091,0.021c0.031,0.008,0.062,0.015,0.092,0.022
			c0.03,0.008,0.061,0.014,0.092,0.019c0.029,0.008,0.061,0.014,0.091,0.022c3.874,0.856,7.632,1.064,11.136,0.595
			c3.609-0.482,6.926-1.683,9.79-3.617c2.93-1.979,5.36-4.709,7.122-8.184c1.784-3.519,2.864-7.762,3.078-12.684
			c0.131-3.01-0.286-5.742-1.106-8.219C67.819,104.271,66.612,102.081,65.16,100.124z"/>
		
			<linearGradient id="SVGID_12_" gradientUnits="userSpaceOnUse" x1="-17.0453" y1="158.1573" x2="44.509" y2="164.103" gradientTransform="matrix(1 0 0 -1 91.1 252.4)">
			<stop  offset="0" style="stop-color:#1D1D1B;stop-opacity:0.5"/>
			<stop  offset="0.038" style="stop-color:#1D1D1B;stop-opacity:0.4837"/>
			<stop  offset="0.4243" style="stop-color:#1D1D1B;stop-opacity:0.3185"/>
			<stop  offset="1" style="stop-color:#1D1D1B;stop-opacity:0"/>
		</linearGradient>
		<path style="opacity:0.41;fill:url(#SVGID_12_);enable-background:new    ;" d="M114.996,137.358l-3.22-107.516l-0.552-0.539
			l1.531,106.564c0,0-13.419,20.357-15.442,19.765c-2.964-0.867,5.781-134.42,5.781-134.42l-0.992-0.987
			c-0.374-0.308-0.822-0.482-1.279-0.571l-7.107,142.666l0,0l-0.101,2.035l2.507-3.165l0,0L114.996,137.358z"/>
		
			<linearGradient id="SVGID_13_" gradientUnits="userSpaceOnUse" x1="-6.1707" y1="228.8696" x2="-13.2801" y2="218.0134" gradientTransform="matrix(1 0 0 -1 91.1 252.4)">
			<stop  offset="0" style="stop-color:#000000;stop-opacity:0"/>
			<stop  offset="1" style="stop-color:#000000;stop-opacity:0.4"/>
		</linearGradient>
		<path style="fill:url(#SVGID_13_);" d="M78.523,25.917c-1.136,4.504-2.607,8.7-3.617,11.192c-0.628,1.545,0.069,2.97,1.557,3.183
			c1.487,0.214,3.201-0.865,3.83-2.41c0.107-0.263,2.63-6.509,4.302-13.761c0.007-0.03,0.012-0.059,0.02-0.09L78.523,25.917z"/>
		
			<linearGradient id="SVGID_14_" gradientUnits="userSpaceOnUse" x1="-49.1569" y1="215.545" x2="-55.2093" y2="208.3396" gradientTransform="matrix(1 0 0 -1 91.1 252.4)">
			<stop  offset="0" style="stop-color:#000000;stop-opacity:0"/>
			<stop  offset="1" style="stop-color:#000000;stop-opacity:0.4"/>
		</linearGradient>
		<path style="fill:url(#SVGID_14_);" d="M35.539,39.227c-1.34,2.865-2.684,5.362-3.664,7.025c-0.848,1.435-0.367,2.947,1.073,3.377
			c1.439,0.43,3.294-0.386,4.142-1.822c0.128-0.217,2.837-4.83,5.345-10.716L35.539,39.227z"/>
		
			<linearGradient id="SVGID_15_" gradientUnits="userSpaceOnUse" x1="26.3525" y1="99.5872" x2="28.7339" y2="90.4783" gradientTransform="matrix(1 0 0 -1 91.1 252.4)">
			<stop  offset="0" style="stop-color:#000000;stop-opacity:0"/>
			<stop  offset="1" style="stop-color:#000000;stop-opacity:0.4"/>
		</linearGradient>
		<polygon style="opacity:0.32;fill:url(#SVGID_15_);enable-background:new    ;" points="93.646,164.353 114.988,137.359 
			144.424,153.377 		"/>
		
			<linearGradient id="SVGID_16_" gradientUnits="userSpaceOnUse" x1="23.1989" y1="113.927" x2="28.6973" y2="90.1758" gradientTransform="matrix(1 0 0 -1 91.1 252.4)">
			<stop  offset="0" style="stop-color:#FFFFFF;stop-opacity:0.5"/>
			<stop  offset="0.0896" style="stop-color:#FFFFFF;stop-opacity:0.4552"/>
			<stop  offset="1" style="stop-color:#FFFFFF;stop-opacity:0"/>
		</linearGradient>
		<polygon style="opacity:0.19;fill:url(#SVGID_16_);enable-background:new    ;" points="93.618,164.364 114.723,137.369 
			144.424,153.377 		"/>
		
			<linearGradient id="SVGID_17_" gradientUnits="userSpaceOnUse" x1="21.0525" y1="111.2904" x2="30.6878" y2="86.3746" gradientTransform="matrix(1 0 0 -1 91.1 252.4)">
			<stop  offset="0" style="stop-color:#000000;stop-opacity:0"/>
			<stop  offset="1" style="stop-color:#000000;stop-opacity:0.4"/>
		</linearGradient>
		<polygon style="opacity:0.19;fill:url(#SVGID_17_);enable-background:new    ;" points="93.618,164.364 114.723,137.369 
			144.424,153.377 		"/>
		
			<linearGradient id="SVGID_18_" gradientUnits="userSpaceOnUse" x1="10.9551" y1="214.3067" x2="-50.1947" y2="145.2667" gradientTransform="matrix(1 0 0 -1 91.1 252.4)">
			<stop  offset="0" style="stop-color:#FFFFFF;stop-opacity:0.5"/>
			<stop  offset="1" style="stop-color:#FFFFFF;stop-opacity:0"/>
		</linearGradient>
		<path style="opacity:0.6;fill:url(#SVGID_18_);enable-background:new    ;" d="M72.886,88.976
			c11.039,14.984,18.432,31.157,22.151,46.87l5.788-116.19c-1.033-0.203-2.087,0.02-2.343,0.081l-80.673,24.98
			c0,0-0.773,0.22-1.673,0.554C36.529,52.332,57.001,67.413,72.886,88.976z"/>
		
			<linearGradient id="SVGID_19_" gradientUnits="userSpaceOnUse" x1="0.8908" y1="161.8873" x2="68.7477" y2="159.812" gradientTransform="matrix(1 0 0 -1 91.1 252.4)">
			<stop  offset="0" style="stop-color:#1D1D1B;stop-opacity:0.5"/>
			<stop  offset="0.0896" style="stop-color:#1D1D1B;stop-opacity:0.4552"/>
			<stop  offset="1" style="stop-color:#1D1D1B;stop-opacity:0"/>
		</linearGradient>
		<path style="fill:url(#SVGID_19_);" d="M125.919,31.207c0.45,0.391,0.504,0.981,0.504,0.981l17.736,121.189l-29.164-16.02
			l-3.22-107.509l13.037,0.972C124.813,30.821,125.468,30.815,125.919,31.207z"/>
		
			<linearGradient id="SVGID_20_" gradientUnits="userSpaceOnUse" x1="51.768" y1="216.0274" x2="46.509" y2="196.5306" gradientTransform="matrix(1 0 0 -1 91.1 252.4)">
			<stop  offset="0" style="stop-color:#FFFFFF;stop-opacity:0.4"/>
			<stop  offset="1" style="stop-color:#FFFFFF;stop-opacity:0"/>
		</linearGradient>
		<path style="fill:url(#SVGID_20_);" d="M123.78,31.47c0,0,0.604,0.048,1.054,0.439c0.45,0.391,0.556,0.929,0.556,0.929
			l17.45,119.815l1.319,0.725L126.423,32.188c0,0-0.054-0.591-0.504-0.981c-0.45-0.391-1.106-0.386-1.106-0.386l-13.037-0.972
			L123.78,31.47z"/>
		
			<linearGradient id="SVGID_21_" gradientUnits="userSpaceOnUse" x1="-48.8433" y1="89.3366" x2="-44.2627" y2="112.7034" gradientTransform="matrix(1 0 0 -1 91.1 252.4)">
			<stop  offset="0" style="stop-color:#1D1D1B;stop-opacity:0.5"/>
			<stop  offset="0.0896" style="stop-color:#1D1D1B;stop-opacity:0.4552"/>
			<stop  offset="1" style="stop-color:#1D1D1B;stop-opacity:0"/>
		</linearGradient>
		<polygon style="fill:url(#SVGID_21_);" points="0,146.816 93.617,164.356 98.224,65.109 9.715,65.775 		"/>
		
			<ellipse transform="matrix(0.9392 0.3434 -0.3434 0.9392 18.3989 -8.8718)" style="opacity:0.3;fill:#FFFFFF;enable-background:new    ;" cx="34.249" cy="47.514" rx="3.633" ry="4.448"/>
		
			<ellipse transform="matrix(0.9392 0.3434 -0.3434 0.9392 18.0351 -8.9359)" style="opacity:0.89;enable-background:new    ;" cx="34.249" cy="46.455" rx="3.633" ry="4.448"/>
		
			<linearGradient id="SVGID_22_" gradientUnits="userSpaceOnUse" x1="-8.1056" y1="160.9791" x2="53.6816" y2="158.4436" gradientTransform="matrix(1 0 0 -1 91.1 252.4)">
			<stop  offset="0" style="stop-color:#1D1D1B;stop-opacity:0.5"/>
			<stop  offset="1" style="stop-color:#1D1D1B;stop-opacity:0"/>
		</linearGradient>
		<path style="fill:url(#SVGID_22_);" d="M111.776,29.841l-9.673-9.616c-0.374-0.308-0.822-0.482-1.279-0.571l-7.208,144.7
			l21.379-26.998L111.776,29.841z"/>
		
			<linearGradient id="SVGID_23_" gradientUnits="userSpaceOnUse" x1="-29.7898" y1="232.2631" x2="-40.3782" y2="116.4954" gradientTransform="matrix(1 0 0 -1 91.1 252.4)">
			<stop  offset="0" style="stop-color:#FFFFFF;stop-opacity:0.5"/>
			<stop  offset="1" style="stop-color:#FFFFFF;stop-opacity:0"/>
		</linearGradient>
		<path style="fill:url(#SVGID_23_);" d="M98.482,19.737l-80.673,24.98c0,0-3.461,0.983-4.275,1.959
			c-0.06,0.072-0.117,0.155-0.171,0.243l81.36-22.497c0.664-0.151,2.323-0.775,2.07,3.939l-4.932,135.667l1.757,0.328l7.208-144.7
			C99.792,19.453,98.738,19.675,98.482,19.737z"/>
		
			<linearGradient id="SVGID_24_" gradientUnits="userSpaceOnUse" x1="-29.7898" y1="232.2631" x2="-40.3782" y2="116.4954" gradientTransform="matrix(1 0 0 -1 91.1 252.4)">
			<stop  offset="0" style="stop-color:#FFFFFF;stop-opacity:0.5"/>
			<stop  offset="1" style="stop-color:#FFFFFF;stop-opacity:0"/>
		</linearGradient>
		<path style="fill:url(#SVGID_24_);" d="M98.482,19.737l-80.673,24.98c0,0-3.461,0.983-4.275,1.959
			c-0.06,0.072-0.117,0.155-0.171,0.243l18.85-5.212l64.787-20.061c0.255-0.061,1.309-0.284,2.343-0.081l-7.1,142.535l1.376,0.257
			l7.208-144.7C99.792,19.453,98.738,19.675,98.482,19.737z"/>
		
			<linearGradient id="SVGID_25_" gradientUnits="userSpaceOnUse" x1="23.7789" y1="113.7" x2="2.7388" y2="80.4423" gradientTransform="matrix(1 0 0 -1 91.1 252.4)">
			<stop  offset="0" style="stop-color:#FFFFFF;stop-opacity:0.5"/>
			<stop  offset="0.0896" style="stop-color:#FFFFFF;stop-opacity:0.4552"/>
			<stop  offset="1" style="stop-color:#FFFFFF;stop-opacity:0"/>
		</linearGradient>
		<path style="opacity:0.32;fill:url(#SVGID_25_);enable-background:new    ;" d="M119.276,139.704l-4.288-2.345l-21.371,26.994
			l1.183-0.257c0,0,18.864-24.232,20.568-25.023C116.507,138.545,119.276,139.704,119.276,139.704z"/>
		
			<linearGradient id="SVGID_26_" gradientUnits="userSpaceOnUse" x1="17.2697" y1="116.6187" x2="15.8021" y2="111.178" gradientTransform="matrix(1 0 0 -1 91.1 252.4)">
			<stop  offset="0" style="stop-color:#000000;stop-opacity:0"/>
			<stop  offset="1" style="stop-color:#000000;stop-opacity:0.4"/>
		</linearGradient>
		<path style="opacity:0.57;fill:url(#SVGID_26_);enable-background:new    ;" d="M93.617,164.356l21.372-26.996
			C114.988,137.359,101.418,152.112,93.617,164.356z"/>
		
			<linearGradient id="SVGID_27_" gradientUnits="userSpaceOnUse" x1="39.6089" y1="110.7508" x2="39.247" y2="109.409" gradientTransform="matrix(1 0 0 -1 91.1 252.4)">
			<stop  offset="0" style="stop-color:#000000;stop-opacity:0"/>
			<stop  offset="1" style="stop-color:#000000;stop-opacity:0.4"/>
		</linearGradient>
		<path style="opacity:0.46;fill:url(#SVGID_27_);enable-background:new    ;" d="M144.424,153.377l-29.436-16.018
			C114.988,137.359,118.348,137.928,144.424,153.377z"/>
		
			<ellipse transform="matrix(0.9392 0.3435 -0.3435 0.9392 17.6304 -24.1396)" style="opacity:0.3;fill:#FFFFFF;enable-background:new    ;" cx="76.956" cy="37.697" rx="3.633" ry="4.448"/>
		
			<ellipse transform="matrix(0.9392 0.3435 -0.3435 0.9392 17.2674 -24.2045)" style="opacity:0.89;enable-background:new    ;" cx="76.958" cy="36.64" rx="3.633" ry="4.448"/>
		<path style="fill:#595961;" d="M34.069,49.647c-0.134,0-0.269-0.01-0.406-0.029c-1.544-0.223-2.614-1.652-2.393-3.195
			c0.217-1.51,5.568-37.081,27.854-45.171c5.624-2.042,10.326-1.583,13.972,1.365c4.382,3.545,6.8,10.543,7.184,20.8
			c0.272,7.252-0.578,13.499-0.615,13.761c-0.214,1.545-1.64,2.624-3.184,2.41c-1.545-0.213-2.623-1.639-2.41-3.183
			c0.887-6.444,1.801-24.282-4.53-29.397c-2.027-1.638-4.805-1.783-8.491-0.446c-19.101,6.934-24.141,40.33-24.19,40.667
			C36.657,48.633,35.45,49.647,34.069,49.647z"/>
		<path style="opacity:0.46;fill:#B2B2C2;enable-background:new    ;" d="M72.076,2.733c-3.311-2.677-7.719-3.09-12.944-1.192
			c-9.054,3.286-16.629,12.042-21.906,25.318c-3.909,9.835-5.209,18.637-5.262,19.008c-0.068,0.466,0.051,0.932,0.335,1.309
			c0.282,0.377,0.695,0.622,1.158,0.689c0.086,0.012,0.171,0.019,0.256,0.019c0.871,0,1.621-0.65,1.745-1.513
			c0.049-0.343,5.169-34.355,24.878-41.511c3.988-1.447,7.214-1.246,9.519,0.619c6.726,5.438,5.826,23.762,4.913,30.365
			c-0.133,0.963,0.542,1.857,1.508,1.99c0.973,0.131,1.857-0.561,1.987-1.507C78.409,35.276,81.711,10.524,72.076,2.733z"/>
		<path style="opacity:0.81;fill:#B2B2C2;enable-background:new    ;" d="M33.714,46.823c-0.05,0-0.101-0.003-0.152-0.01
			c-0.579-0.083-0.981-0.62-0.897-1.199c0.052-0.365,1.33-9.064,5.218-18.847c5.201-13.085,12.632-21.7,21.491-24.916
			c5.003-1.818,9.127-1.454,12.258,1.078c9.329,7.544,6.075,31.913,5.933,32.947c-0.08,0.579-0.614,0.982-1.193,0.904
			c-0.58-0.08-0.984-0.615-0.904-1.194c0.033-0.242,3.237-24.216-5.167-31.01c-2.513-2.033-5.946-2.279-10.204-0.734
			C39.988,11.141,34.81,45.569,34.761,45.915C34.685,46.442,34.232,46.823,33.714,46.823z"/>
		<path style="opacity:0.42;fill:#595961;enable-background:new    ;" d="M46.197,19.536c1.053-1.41,2.031-2.872,2.938-4.363
			c-0.384,0.497-3.131,5.458-8.851,4.697C40.284,19.87,43.569,20.912,46.197,19.536z"/>
		<path style="opacity:0.42;fill:#595961;enable-background:new    ;" d="M43.016,25.686c0.875-1.526,1.669-3.096,2.39-4.685
			c-0.321,0.54-2.172,5.69-8.219,5.73C37.187,26.73,40.573,27.37,43.016,25.686z"/>
		<path style="opacity:0.42;fill:#595961;enable-background:new    ;" d="M40.565,31.899c0.724-1.604,1.366-3.241,1.932-4.893
			c-0.268,0.568-1.314,5.792-7.634,6.489C34.862,33.496,38.294,33.808,40.565,31.899z"/>
		<path style="opacity:0.62;fill:#595961;enable-background:new    ;" d="M78.575,13.428c-0.456-1.699-0.998-3.373-1.607-5.008
			c0.152,0.609,2.096,5.968-1.791,9.858C75.176,18.279,78.029,16.345,78.575,13.428z"/>
		<path style="opacity:0.62;fill:#595961;enable-background:new    ;" d="M74.869,4.811c-1.286-1.201-2.632-2.334-4.014-3.398
			c0.452,0.436,4.937,3.953,3.698,9.312C74.553,10.725,75.949,7.575,74.869,4.811z"/>
		<path style="opacity:0.62;fill:#595961;enable-background:new    ;" d="M79.536,22.146c-0.122-1.755-0.336-3.502-0.62-5.223
			c0.032,0.627,0.917,6.258-3.641,9.335C75.274,26.257,78.444,24.904,79.536,22.146z"/>
		<path style="opacity:0.62;fill:#595961;enable-background:new    ;" d="M80.006,31.038c0.098-1.756,0.105-3.515,0.036-5.259
			c-0.046,0.626,0.128,6.324-4.779,8.806C75.263,34.585,78.577,33.639,80.006,31.038z"/>
		<path style="opacity:0.42;fill:#595961;enable-background:new    ;" d="M38.39,38.892c0.531-1.677,0.975-3.379,1.344-5.086
			c-0.2,0.595-1.093,6.018-6.82,7.341C32.915,41.147,36.36,41.056,38.39,38.892z"/>
		<path style="opacity:0.42;fill:#595961;enable-background:new    ;" d="M49.887,14.327c1.312-1.172,2.563-2.411,3.749-3.69
			c-0.475,0.41-4.286,4.271-9.609,2.838C44.026,13.476,47.036,15.152,49.887,14.327z"/>
		<path style="opacity:0.42;fill:#595961;enable-background:new    ;" d="M54.183,10.002c1.496-0.927,2.941-1.93,4.33-2.985
			c-0.539,0.322-4.961,3.466-9.955,1.133C48.557,8.15,51.233,10.322,54.183,10.002z"/>
		<path style="opacity:0.62;fill:#595961;enable-background:new    ;" d="M59.915,6.823c1.696-0.469,3.365-1.026,4.995-1.647
			c-0.607,0.157-5.735,1.931-9.872-1.711C55.039,3.465,56.995,6.301,59.915,6.823z"/>
		<path style="opacity:0.62;fill:#595961;enable-background:new    ;" d="M64.842,5.115c1.322,0.192,2.652,0.315,3.975,0.381
			c-0.471-0.077-4.577-0.41-6.339-4.204C62.478,1.291,62.972,3.86,64.842,5.115z"/>
		<path style="opacity:0.62;fill:#595961;enable-background:new    ;" d="M69.983,7.193c0.81,1.063,1.672,2.082,2.57,3.055
			c-0.283-0.384-2.979-3.496-1.579-7.44C70.975,2.807,69.527,4.987,69.983,7.193z"/>
		
			<linearGradient id="SVGID_28_" gradientUnits="userSpaceOnUse" x1="-27.5454" y1="250.1555" x2="-36.8873" y2="210.9694" gradientTransform="matrix(1 0 0 -1 91.1 252.4)">
			<stop  offset="0" style="stop-color:#FFFFFF;stop-opacity:0.65"/>
			<stop  offset="1" style="stop-color:#FFFFFF;stop-opacity:0"/>
		</linearGradient>
		<path style="fill:url(#SVGID_28_);" d="M76.535,35.3c0.142-1.021,3.357-25.105-5.74-32.463c-1.721-1.391-3.784-2.097-6.131-2.097
			c-1.706,0-3.595,0.372-5.614,1.105c-8.713,3.163-16.036,11.674-21.179,24.613c-3.855,9.7-5.134,18.363-5.187,18.727
			c-0.042,0.288,0.16,0.558,0.449,0.6c0.028,0.004,0.052,0.006,0.077,0.006c0.261,0,0.485-0.196,0.522-0.454
			c0.05-0.351,5.282-35.091,25.678-42.496c4.422-1.606,8.068-1.323,10.718,0.819c8.641,6.986,5.392,31.251,5.358,31.496
			c-0.04,0.288,0.163,0.556,0.452,0.597c0.023,0.003,0.047,0.004,0.071,0.004C76.275,35.757,76.5,35.561,76.535,35.3z"/>
		<g>
			
				<linearGradient id="SVGID_29_" gradientUnits="userSpaceOnUse" x1="-18.052" y1="238.0375" x2="-13.5962" y2="207.9334" gradientTransform="matrix(1 0 0 -1 91.1 252.4)">
				<stop  offset="0" style="stop-color:#000000;stop-opacity:0"/>
				<stop  offset="1" style="stop-color:#000000;stop-opacity:0.4"/>
			</linearGradient>
			<path style="fill:url(#SVGID_29_);" d="M80.28,23.416c-0.385-10.257-2.802-17.255-7.184-20.8
				c-2.376-1.921-5.207-2.779-8.444-2.581c2.51,0.161,4.745,1.017,6.681,2.581c4.382,3.545,6.8,10.543,7.183,20.8
				c0.272,7.252-0.578,13.499-0.613,13.761c-0.153,1.103-0.925,1.965-1.917,2.293c0.16,0.052,0.325,0.093,0.496,0.117
				c1.545,0.214,2.97-0.865,3.184-2.41C79.703,36.914,80.552,30.667,80.28,23.416z"/>
		</g>
		
			<linearGradient id="SVGID_30_" gradientUnits="userSpaceOnUse" x1="-47.0712" y1="217.6691" x2="-31.4493" y2="250.4509" gradientTransform="matrix(1 0 0 -1 91.1 252.4)">
			<stop  offset="0" style="stop-color:#000000;stop-opacity:0"/>
			<stop  offset="1" style="stop-color:#000000;stop-opacity:0.4"/>
		</linearGradient>
		<path style="fill:url(#SVGID_30_);" d="M59.286,6.56c-19.102,6.935-24.142,40.331-24.192,40.667
			c-0.159,1.096-0.928,1.951-1.912,2.276c0.154,0.05,0.314,0.091,0.48,0.115c0.137,0.02,0.272,0.029,0.406,0.029
			c1.381,0,2.588-1.014,2.791-2.42c0.049-0.337,5.089-33.732,24.192-40.667c1.29-0.468,2.466-0.75,3.539-0.855
			C63.082,5.536,61.324,5.819,59.286,6.56z"/>
		<g style="opacity:0.45;">
			
				<linearGradient id="SVGID_31_" gradientUnits="userSpaceOnUse" x1="-57.8701" y1="218.3096" x2="-56.8682" y2="206.8243" gradientTransform="matrix(1 0 0 -1 91.1 252.4)">
				<stop  offset="0" style="stop-color:#000000;stop-opacity:0"/>
				<stop  offset="1" style="stop-color:#000000;stop-opacity:0.4"/>
			</linearGradient>
			<path style="fill:url(#SVGID_31_);" d="M33.779,45.688c-0.972-0.354-1.663-1.172-1.993-2.197
				c-0.325,1.644-0.482,2.697-0.516,2.932c-0.222,1.543,0.849,2.973,2.393,3.195c0.137,0.02,0.272,0.029,0.406,0.029
				c1.381,0,2.588-1.014,2.791-2.42c0.008-0.052,0.137-0.911,0.422-2.347C36.263,45.767,34.956,46.119,33.779,45.688z"/>
			
				<linearGradient id="SVGID_32_" gradientUnits="userSpaceOnUse" x1="-14.517" y1="222.0921" x2="-13.5151" y2="210.6068" gradientTransform="matrix(1 0 0 -1 91.1 252.4)">
				<stop  offset="0" style="stop-color:#000000;stop-opacity:0"/>
				<stop  offset="1" style="stop-color:#000000;stop-opacity:0.4"/>
			</linearGradient>
			<path style="fill:url(#SVGID_32_);" d="M76.195,35.009c-0.802-0.292-1.414-0.902-1.789-1.684
				c-0.101,1.185-0.217,2.231-0.334,3.077c-0.213,1.545,0.865,2.97,2.41,3.183c1.545,0.214,2.97-0.865,3.184-2.41
				c0.016-0.113,0.183-1.34,0.345-3.277C78.956,35.004,77.497,35.486,76.195,35.009z"/>
		</g>
	</g>
</g>
<g id="Layer_1">
</g>
</svg>
